<svg xmlns="http://www.w3.org/2000/svg" width="32" height="33" fill="none" viewBox="0 0 32 33">
  <path fill="#101828" d="M16 3.167C8.652 3.167 2.665 9.154 2.665 16.5c0 7.347 5.987 13.334 13.333 13.334 7.347 0 13.334-5.987 13.334-13.334 0-7.346-5.987-13.333-13.334-13.333Zm4.48 16.4a1.006 1.006 0 0 1 0 1.413c-.2.2-.454.294-.707.294a.99.99 0 0 1-.707-.294l-3.067-3.066-3.066 3.066a.99.99 0 0 1-.707.294.989.989 0 0 1-.707-.294 1.006 1.006 0 0 1 0-1.413l3.067-3.067-3.067-3.066a1.006 1.006 0 0 1 0-1.414 1.006 1.006 0 0 1 1.414 0l3.066 3.067 3.067-3.067a1.006 1.006 0 0 1 1.413 0 1.006 1.006 0 0 1 0 1.414L17.413 16.5l3.066 3.067Z"/>
</svg>
